<?xml version="1.0" encoding="utf-8"?>
<!-- Generator: Adobe Illustrator 21.0.2, SVG Export Plug-In . SVG Version: 6.00 Build 0)  -->
<svg version="1.1" id="Layer_1" xmlns="http://www.w3.org/2000/svg" xmlns:xlink="http://www.w3.org/1999/xlink" x="0px" y="0px"
	 viewBox="0 0 741.9 411.4" style="enable-background:new 0 0 741.9 411.4;" xml:space="preserve">
<style type="text/css">
	.st0{fill:none;stroke:#ED4C2F;stroke-width:3;stroke-linecap:round;stroke-linejoin:round;stroke-miterlimit:10;}
	.st1{fill:#091E42;}
	.st2{font-family:'CircularPro-Book';}
	.st3{font-size:14px;}
	.st4{fill:none;}
	.st5{fill:#184066;}
	
		.st6{fill:none;stroke:#FFFFFF;stroke-width:2;stroke-linecap:round;stroke-linejoin:round;stroke-miterlimit:10;stroke-dasharray:0,9.342;}
	.st7{opacity:0.8;fill:url(#SVGID_1_);}
	.st8{fill:none;stroke:#0065FF;stroke-width:3;stroke-linecap:round;stroke-linejoin:round;stroke-miterlimit:10;}
	.st9{fill:#FFFFFF;}
	.st10{fill:none;stroke:#FFFFFF;stroke-width:2;stroke-miterlimit:10;}
</style>
<path class="st0" d="M54,398.3"/>
<text transform="matrix(1 0 0 1 96.5791 408.104)" class="st1 st2 st3">2005</text>
<text transform="matrix(1 0 0 1 219.063 408.104)" class="st1 st2 st3">2007</text>
<text transform="matrix(1 0 0 1 340.6711 408.104)" class="st1 st2 st3">2009</text>
<text transform="matrix(1 0 0 1 466.2549 408.104)" class="st1 st2 st3">2011</text>
<text transform="matrix(1 0 0 1 587.4902 408.104)" class="st1 st2 st3">2013</text>
<text transform="matrix(1 0 0 1 712.7939 408.104)" class="st1 st2 st3">2015</text>
<g>
	<rect x="0" y="110" class="st4" width="29.4" height="168.5"/>
	<text transform="matrix(0 -1 1 0 12.002 254.1459)" class="st5 st2 st3">Keyword Searches</text>
</g>
<text transform="matrix(1 0 0 1 27.5388 307.0137)" class="st1 st2 st3">20</text>
<text transform="matrix(1 0 0 1 26.9089 231.9399)" class="st1 st2 st3">40</text>
<text transform="matrix(1 0 0 1 26.825 156.2368)" class="st1 st2 st3">60</text>
<text transform="matrix(1 0 0 1 27.1047 81.1045)" class="st1 st2 st3">80</text>
<text transform="matrix(1 0 0 1 21.2668 11.9253)" class="st1 st2 st3">100</text>
<g>
	<line class="st6" x1="696.6" y1="77.2" x2="63.4" y2="77.2"/>
	<line class="st6" x1="723.3" y1="8" x2="64.4" y2="8"/>
	<line class="st6" x1="713.4" y1="152.6" x2="64.4" y2="152.6"/>
	<line class="st6" x1="714.1" y1="228" x2="64.9" y2="228"/>
	<line class="st6" x1="721.6" y1="303.5" x2="63.4" y2="303.5"/>
</g>
<linearGradient id="SVGID_1_" gradientUnits="userSpaceOnUse" x1="390.6641" y1="368.8218" x2="390.6641" y2="240.3698">
	<stop  offset="0" style="stop-color:#FFFFFF;stop-opacity:0"/>
	<stop  offset="1" style="stop-color:#FFFFFF"/>
</linearGradient>
<path class="st7" d="M54.2,378.5h25.7l5.6-74.5l4.2,23.4l9.8,1.1l5.1,50h49.5l6.5-30.8c0,0,0,3.2,4.7,3.2s10.3,0,10.3,0l9.1-16
	l4.9,6.4l5.1-17l4.7-43.6l5.6,23.4h4.7l10.3,52.1l10.9-20.2l5-6.4l2.8,6.4c0,0,3.3,16,5.6,13.8c2.3-2.1,6.1-8.5,6.1-8.5l5.6,9.6
	l3.7-16l5.6,19.1l6.1-11.7L279,354l9.3-6.4l7.5-11.7l4.2,10.6l6.5-4.3l4.2-23.4l4.7,16l5.1-5.3l5.6,5.3l4.7-22.3l4.2,17
	c0,0,3.3-12.8,4.7-13.8c1.4-1.1,6.1-19.1,6.1-19.1h2.3l7-23.4h7c0,0,1.4-2.1,2.8-6.4s4.2-21.3,4.2-21.3l6.5,20.2
	c0,0,2.3,2.1,4.2,1.1c1.9-1.1,6.1,3.2,6.1,3.2s2.8-4.3,6.1-2.1c3.3,2.1,3.3,2.1,3.3,2.1h4.5c0,0,3.9-1.1,5.7-1.1
	c1.9,0,4.7,4.3,4.7,4.3l5.1-8.5l4.7,3.2l6.5-17v18.1l7.5-23.4c0,0,0.6-4.3,3.6,0c3,4.3,8.1,20.2,8.1,20.2l5.6-30.8
	c0,0,0,28.7,3.3,24.5c3.3-4.3,5.6-7.4,5.6-7.4s7.9-3.2,9.8-2.1c1.9,1.1,1.9,1.1,1.9,1.1l5.1-33v17c0,0,5.4,2.1,7.1,1.1
	c1.7-1.1,6.4-22.9,6.4-22.9l7.9,7l4.2,1.1l8.9-19.1h6.1l8.4-11.7l7.5,6.4l3.7,16.4c0,0,5.6-2.6,6.1-5.8c0.5-3.2,3.7-17,3.7-17
	l4.7,29.8l4.2-29.8l7-7.4l5.7-9.6l3.7,4.3l2.8-4.3l5.6-8.5l7.9,22.3l2.3-3.2l5.1-19.1h7.9l3.3-11.7h7.9v7.4l5.1-17h4.7h12.1
	l3.7-28.7h4.7l7.4,24.5l7.6-50h4.7h6.1l6.7,7.4l3.6-25.5h8.7l2,9.6l2.8-28.7c0,0,8.9,27.7,10.7,27.7c1.9,0,2.8,0,4.7-2.1
	c1.9-2.1,6.5-33,6.5-33l5.6,13.8l4.2-41.5v361.6H54.3"/>
<path class="st8" d="M154.2,378.5l6.5-30.8c0,0,0,3.2,4.7,3.2s10.3,0,10.3,0l9.1-16l4.9,6.4l5.1-17l4.7-43.6l5.6,23.4h4.7l10.3,52.1
	l10.9-20.2l5-6.4l2.8,6.4c0,0,3.3,16,5.6,13.8c2.3-2.1,6.1-8.5,6.1-8.5l5.6,9.6l3.7-16l5.6,19.1l6.1-11.7L279,354l9.3-6.4l7.5-11.7
	l4.2,10.6l6.5-4.3l4.2-23.4l4.7,16l5.1-5.3l5.6,5.3l4.7-22.3l4.2,17c0,0,3.3-12.8,4.7-13.8c1.4-1.1,6.1-19.1,6.1-19.1h2.3l7-23.4h7
	c0,0,1.4-2.1,2.8-6.4s4.2-21.3,4.2-21.3l6.5,20.2c0,0,2.3,2.1,4.2,1.1c1.9-1.1,6.1,3.2,6.1,3.2s2.8-4.3,6.1-2.1
	c3.3,2.1,3.3,2.1,3.3,2.1h4.5c0,0,3.9-1.1,5.7-1.1c1.9,0,4.7,4.3,4.7,4.3l5.1-8.5l4.7,3.2l6.5-17v18.1l7.5-23.4c0,0,0.6-4.3,3.6,0
	c3,4.3,8.1,20.2,8.1,20.2l5.6-30.8c0,0,0,28.7,3.3,24.5c3.3-4.3,5.6-7.4,5.6-7.4s7.9-3.2,9.8-2.1c1.9,1.1,1.9,1.1,1.9,1.1l5.1-33v17
	c0,0,5.4,2.1,7.1,1.1c1.7-1.1,6.4-22.9,6.4-22.9l7.9,7l4.2,1.1l8.9-19.1h6.1l8.4-11.7l7.5,6.4l3.7,16.4c0,0,5.6-2.6,6.1-5.8
	c0.5-3.2,3.7-17,3.7-17l4.7,29.8l4.2-29.8l7-7.4l5.7-9.6l3.7,4.3l2.8-4.3l5.6-8.5l7.9,22.3l2.3-3.2l5.1-19.1h7.9l3.3-11.7h7.9v7.4
	l5.1-17h4.7h12.1l3.7-28.7h4.7l7.4,24.5l7.6-50h4.7h6.1l6.7,7.4l3.6-25.5h8.7l2,9.6l2.8-28.7c0,0,8.9,27.7,10.7,27.7
	c1.9,0,2.8,0,4.7-2.1c1.9-2.1,6.5-33,6.5-33l5.6,13.8L727.1,8"/>
<polyline class="st8" points="79.9,378.5 85.5,304 89.7,327.4 99.5,328.5 104.7,378.5 "/>
<path class="st0" d="M54.2,378.5"/>
<ellipse class="st9" cx="112.9" cy="378.9" rx="4.8" ry="5"/>
<ellipse class="st9" cx="235" cy="378.9" rx="4.8" ry="5"/>
<ellipse class="st9" cx="357.2" cy="378.9" rx="4.8" ry="5"/>
<ellipse class="st9" cx="479.4" cy="378.9" rx="4.8" ry="5"/>
<ellipse class="st9" cx="602" cy="378.9" rx="4.8" ry="5"/>
<ellipse class="st9" cx="727.3" cy="378.9" rx="4.8" ry="5"/>
<polyline class="st10" points="54.3,8.6 54.3,378.9 729.3,378.9 "/>
<ellipse class="st9" cx="54.3" cy="303.4" rx="4.8" ry="5"/>
<ellipse class="st9" cx="54.3" cy="228" rx="4.8" ry="5"/>
<ellipse class="st9" cx="54.3" cy="152.3" rx="4.8" ry="5"/>
<ellipse class="st9" cx="54.3" cy="77.1" rx="4.8" ry="5"/>
<ellipse class="st9" cx="54.3" cy="8.3" rx="4.8" ry="5"/>
</svg>
